# xmcd
#
# Track frame offsets: 
#        150
#        13387
#        29420
#        44330
#        57492
#        72100
#        83290
#        94370
#        106287
#        117590
#        130907
#        140215
#        154480
#        167632
#        181677
#        194677
#        208435
#        219472
#        236755
#        247637
#
# Disc length: 3449 seconds
#
# Revision: 1
# Processed by: cddbd v1.5.2PL0 Copyright (c) Steve Scherf et al.
# Submitted via: ExactAudioCopyFreeDBPlugin 1.0
#
DISCID=2c0d7714
DTITLE=Ray Price - Portrait Of A Singer
DYEAR=1985
DGENRE=Country
TTITLE0=You're Nobody 'Till Somebody Loves You
TTITLE1=Once In A While
TTITLE2=Sentimental Journey
TTITLE3=Because Of You
TTITLE4=You'll Never Know
TTITLE5=All The Way
TTITLE6=Smile
TTITLE7=Bummin' Around
TTITLE8=You Always Hurt The One You Love
TTITLE9=It Had To Be You
TTITLE10=I Can't Give You Anything But Love
TTITLE11=I'm Confessin' (That I Love You)
TTITLE12=Always
TTITLE13=Mona Lisa
TTITLE14=Young At Heart
TTITLE15=I'm In The Mood For Love
TTITLE16=Love Me Tender
TTITLE17=As Time Goes By
TTITLE18=Don't Get Around Much Anymore
TTITLE19=Please Don't Talk About Me When I'm Gone
EXTD=
EXTT0=
EXTT1=
EXTT2=
EXTT3=
EXTT4=
EXTT5=
EXTT6=
EXTT7=
EXTT8=
EXTT9=
EXTT10=
EXTT11=
EXTT12=
EXTT13=
EXTT14=
EXTT15=
EXTT16=
EXTT17=
EXTT18=
EXTT19=
PLAYORDER=
